<?xml version="1.0" encoding="UTF-8"?>
<svg version="1.1" viewBox="0 0 1504 1544" width="376" height="386" xmlns="http://www.w3.org/2000/svg">
<path transform="translate(0)" d="m0 0h1504v1544h-1504z" fill="#3C5989"/>
<path transform="translate(0)" d="m0 0h1504v1544h-1504zm262 163-2 1-4 7-3 3-23 1-8 7-7 8-15 16-9 12-10 13-1 2-2 20-6 12-1 3v1026l4 18 6 18 7 14 8 10 10 10 14 10 16 8 30 8 15 2 81 1h698l92-1 23-2 22-4 16-4 21-7 20-9 15-9 13-9 16-12 13-11 14-14 8-7 11-13 10-16 7-10 9-16 14-35 6-20 6-27 3-20 2-32v-31l-2-35-3-34-5-31-6-26-10-32-9-24-16-33-5-9-17-26-9-13-8-10-15-16-7-8v-7l-4-2-1 2-4-2-10-8-10-9-14-11-11-8-11-7-4-5 1-7 10-16 12-19 5-7 8-16 11-28 11-29 7-24 6-27 5-27 3-28 2-28v-53l-2-26-5-33-4-17-10-27-11-21-8-13-14-20-6-8 5 1-2-5-4-2-2 3-8-7-1-2h5l-3-5h-3v3l-10-8-1-2h4l-1-4-5 1h-1l-11-10-14-10-1-5h-6l-19-10-28-11-19-7-30-8-20-4-8-1z" fill="#FDFEFD"/>
<path transform="translate(948,381)" d="m0 0h49l34 2 18 4 12 5 7 8 7 13 3 25 1 16-1 30-1 6-2 48-4 8-10 19-5 13-2 9-13 16-9 10-17 17-17 10-24 12-9 1-22 10-11 1-305 1-34 1-85 1-10 1-8 6-5 8v206h287l23 2 72-2h98l34 1 23 2 20 4 15 4 20 8 25 13 10 8 3 3-2 1-1 3h4l1-3 10 10-3 1v3h6l7 8 10 15 11 19 8 19 9 27 2 34 1 10v42l-3 42-5 5-13 3-7 1h-744l-6-1-1-16v-761l3-3 21-2 9-1 103-1 37-1h274l150 2v-3l-48-2z" fill="#FDFEFD"/>
<path transform="translate(1325,823)" d="m0 0 6 5 8 12 9 14 12 22 11 24 6 15 10 28 5 18 9 40 5 41 1 6 1 31v54l-1 17-5 29-12 46-7 19-12 24-8 12-15 20-10 13-8 9-8 7-9 9-33 22-19 13-16 8-21 7-27 6-14 3-11 2-12 1h-872l-15-2-24-6-8-3-9-2-4-4 8 1 21 7 11 3 20 1h873l17-1 5-2 12-2 18-5 18-4 23-10 8-4 10-8 11-8 9-6 9-5 10-7 5-5v-4l7-2 4-4 3-7 4-1 3-6 5-5 6-8 10-13 10-16 8-16 7-16 4-11 12-48 4-27v-89l-1-14-2-7-2-27-10-50-8-24-9-25-4-10-13-26-5-9-8-15-6-9-8-11z" fill="#3C5989"/>
<path transform="translate(399,382)" d="m0 0h79v1l-17 1-40 1-2 3h-23v782l-3-1-1-23v-762z" fill="#FEFFFE"/>
<path transform="translate(1247,258)" d="m0 0 4 2 10 13 9 17 6 8 12 23 6 19 5 21 8 32 1 20v78l-1 16-5 36-10 46-6 27-7 17-13 31-4 9-15 30-9 16-5 8-1 6 1 5-9-6v-4l3-1 2-6 7-11 9-15 5-11 6-10 6-15 18-42 3-9 5-21 3-14 2-14 6-28 4-34v-99l-1-11-6-25-3-8-4-21-8-20-15-25-5-5-4-11-9-10z" fill="#3C5989"/>
<path transform="translate(704,891)" d="m0 0h61l20 1 39 5v1h-17l-16-2h-79l-11 1-3 2-114 1h-55l-37-1-1-3h209l1-4z" fill="#3C5989"/>
<path transform="translate(865,891)" d="m0 0h47l31 1 2 2 73 2 16 1 18 5 2 2-10-1-9-2-71-2-13-1-16-2-70-1-1-3z" fill="#3C5989"/>
<path transform="translate(1260,283)" d="m0 0 4 2 5 6 10 17 7 14 5 14 2 11v6l-2-1-8-24-8-18-9-16-6-10z" fill="#FEFFFE"/>
<path transform="translate(1e3 383)" d="m0 0 10 1 6 2 23 3 17 4 3 4-16-4-26-4-15-1-3-3z" fill="#3C5989"/>
<path transform="translate(816,893)" d="m0 0h8l13 2 26 2 3 2h-26l-15-2-8-2z" fill="#3C5989"/>
<path transform="translate(209,1371)" d="m0 0 6 1 10 10-5-2-9-6z" fill="#3C5989"/>
<path transform="translate(1304,799)" d="m0 0 4 2 4 6-1 2-7-6z" fill="#3C5989"/>
<path transform="translate(1315,812)" d="m0 0 4 1 6 8-1 2-1-3h-2z" fill="#3C5989"/>
</svg>
