<?xml version="1.0" encoding="UTF-8"?>
<svg version="1.1" viewBox="0 0 2048 729" width="758" height="270" xmlns="http://www.w3.org/2000/svg">
<path transform="translate(0)" d="m0 0h2048v729h-2048z" fill="#FABB48"/>
<path transform="translate(1323,229)" d="m0 0h59l16 1 18 4 16 8 9 7 7 9 5 11 3 14v16l-3 11-5 10-9 10-9 6-8 4-3 1 16 6 14 9 5 4v2h2l7 10 4 9 3 15v16l-3 15-5 12-6 9-6 7-11 8-15 7-14 4-5 1-14 1h-73l-1-18v-228z" fill="#FDEDD0"/>
<path transform="translate(1757,229)" d="m0 0h58l16 1 17 4 14 6 10 8 8 9 5 11 3 13v19l-4 13-6 10-9 9-10 6-7 3 10 4 14 7 10 8 8 10 5 10 3 14v21l-4 16-6 12-9 11-10 8-16 8-15 4-18 2h-73l-1-1v-245z" fill="#FDEDD0"/>
<path transform="translate(665,229)" d="m0 0h59l16 1 17 4 12 5 11 8 9 10 5 11 3 14v17l-3 12-5 9-9 10-10 7-9 4 10 4 14 7 10 8 8 10 5 10 3 15v19l-3 14-5 12-6 8-8 9-14 9-15 6-14 3-14 1h-72l-1-1v-245z" fill="#FDEDD0"/>
<path transform="translate(1576,226)" d="m0 0h21l16 4 11 6 11 10 8 14 4 16v10l-3 12-7 13-12 13-11 10-12 8 6 8 11 12 9 11 10 11 9 11 11 12h3l7-8 12-14 12-16 4-5 5 2 18 11-1 4-12 15-11 14-9 11-8 9 6 7 13 15 12 14 7 7v2l-25 1-11-1-10-11-9-11-4-3-16 11-12 7-17 7-11 3-8 1h-27l-14-3-15-6-14-9-8-7-9-13-5-12-2-9v-16l2-12 6-14 9-12 10-10 10-7 17-10 5-3-6-7-11-11-10-15-4-11-1-4v-13l3-14 6-12 8-9 14-9 13-4z" fill="#FDEDD0"/>
<path transform="translate(914,310)" d="m0 0h17l17 3 13 5 11 6 11 9 9 10 8 13 5 14 2 10 1 21-3 18-5 13-6 11-8 10-8 8-14 9-14 6-13 3h-27l-16-4-14-6-11-8-10-9-9-13-7-15-4-17-1-11 2-18 4-15 8-16 7-9 9-9 10-7 14-7 14-4z" fill="#FDEDD0"/>
<path transform="translate(1105,310)" d="m0 0h17l17 3 13 5 11 6 13 11 9 11 8 16 4 13 2 16v10l-3 17-5 14-6 11-8 10-9 9-13 8-14 6-13 3h-27l-16-4-14-6-11-8-10-9-9-13-6-12-4-14-1-6v-24l4-17 5-12 7-11 9-10 9-8 16-9 17-5z" fill="#FDEDD0"/>
<path transform="translate(1110,337)" d="m0 0h8l14 3 14 7 9 8 8 13 4 12 1 5v21l-4 13-6 11-10 11-12 7-10 3-15 1-13-2-16-8-10-10-6-10-4-10-2-11v-14l4-16 7-13 5-6 11-8 12-5z" fill="#FABB48"/>
<path transform="translate(919,337)" d="m0 0 15 1 12 4 9 5 9 8 7 11 5 13 1 6v20l-3 12-7 13-9 10-11 7-12 4-15 1-12-2-12-5-8-6-7-7-8-14-4-17v-12l3-15 8-16 6-7 10-7 12-5z" fill="#FABB48"/>
<path transform="translate(158,389)" d="m0 0h3l1 16v63l240-1v-37l1-24 8 1 8 5 3 5 1 7 1 84-2 1h-18l-1-1-1-19h-240v19l-1 1h-19l-1-1v-99l2-8 6-8z" fill="#FDEDD0"/>
<path transform="translate(256,389)" d="m0 0h54l73 13 12 3 1 1v42l-2 8-5 4-2 1-36 1h-80l-8-2-5-4-2-7z" fill="#FDEDD0"/>
<path transform="translate(1236,201)" d="m0 0h17l12 1 1 1v272l-1 1h-29l-1-2v-272z" fill="#FDEDD0"/>
<path transform="translate(1782,356)" d="m0 0h46l14 3 13 7 7 7 6 12 3 14v8l-3 12-5 10-5 6-10 7-10 4-9 2h-47z" fill="#FABB48"/>
<path transform="translate(691,356)" d="m0 0h46l14 3 13 7 9 10 5 12 2 11-1 13-4 12-7 9-9 8-13 5-9 2h-46z" fill="#FABB48"/>
<path transform="translate(1350,356)" d="m0 0h45l11 2 12 5 9 7 7 10 4 13v19l-4 11-6 9-9 8-8 4-15 4h-46z" fill="#FABB48"/>
<path transform="translate(519,114)" d="m0 0h12l1 1 1 27v464l-1 1h-13z" fill="#FDEDD0"/>
<path transform="translate(1574,357)" d="m0 0 5 1 11 13 9 10 9 11 12 13 9 11 10 11-5 5-11 8-17 8-10 3-9 1h-14l-14-3-13-7-9-10-4-8-2-7v-16l4-12 6-8 10-10 19-12z" fill="#FABB48"/>
<path transform="translate(1782,257)" d="m0 0h40l11 3 10 5 5 4 6 10 3 11v9l-4 11-7 9-10 6-12 3-6 1h-36z" fill="#FABB48"/>
<path transform="translate(691,257)" d="m0 0h40l11 3 10 5 5 5 4 5 4 10 1 13-3 10-8 11-10 6-12 3-6 1h-36z" fill="#FABB48"/>
<path transform="translate(1350,257)" d="m0 0h40l14 4 9 6 7 8 4 11v16l-6 12-7 7-10 5-16 3h-35l-1-71z" fill="#FABB48"/>
<path transform="translate(226,389)" d="m0 0h22l1 1v51h-8v9l-3 6-5 4-4 1h-50l-6-3-3-5v-8l3-5 5-3 12-1h26l1-39 6-7z" fill="#FDEDD0"/>
<path transform="translate(1584,251)" d="m0 0 10 1 10 4 6 5 6 12 1 11-3 9-7 11-11 11-10 7-4-1-12-13-9-13-3-7-1-11 2-9 6-9 10-6z" fill="#FABB48"/>
<path transform="translate(238,291)" d="m0 0h2l5 16 3 8 26 1-5 5-15 11 3 10 4 13v2l-4-1-17-12-5 2-13 9-4 3h-2l7-21 1-6-5-2-9-7-7-4v-2l28-1 1-6z" fill="#FDEDD0"/>
<path transform="translate(325,291)" d="m0 0h2l8 24 26 1-5 5-15 11 3 11 4 12v2l-4-1-15-11-4-1-13 9-5 4h-3l1-5 6-18-1-3-13-9-6-4v-2l27-1 2-9 4-14z" fill="#FDEDD0"/>
<path transform="translate(362,223)" d="m0 0 2 1 6 20 1 2h26v3l-14 10-6 4 6 20 1 6-4-2-17-12-8 4-10 8-4 2-1-3 5-12 2-11-17-12-3-2v-2l26-1 6-16z" fill="#FDEDD0"/>
<path transform="translate(201,224)" d="m0 0 3 1 7 20v2l26-1v3l-14 10-4 3h-2l8 26h-4l-10-8-6-4-7 1-16 12h-2l1-5 5-14 1-7-15-11-4-3v-2l25-1 6-15z" fill="#FDEDD0"/>
<path transform="translate(281,223)" d="m0 0h2l7 20v3h27v3l-14 10-4 3h-2l5 17 3 9-4-1-16-11-4-1-12 9-5 4-4-1 7-21-1-4-15-11-4-2v-2l26-1 6-15z" fill="#FDEDD0"/>
<path transform="translate(191,393)" d="m0 0 10 3 7 8 1 4v7l-5 9-6 4-4 1h-7l-8-4-5-7-1-8 3-9 7-6z" fill="#FDEDD0"/>
<path transform="translate(227,397)" d="m0 0h5l1 1v53l-2 2h-52l-2-2v-5l2-2h45v-45z" fill="#FABB48"/>
<path transform="translate(188,400)" d="m0 0 7 1 5 4 1 2v9l-6 5-6 1-5-3-3-3v-10l4-5z" fill="#FABB48"/>
</svg>
